# xmcd
#
# Track frame offsets:
#  182
#  13505
#  31787
#  47615
#  63052
#  79732
#  91620
#  102982
#  118280
#  134712
#  145375
#  165775
#  181535
#  196390
#  207565
#
# Disc length: 3022 seconds
#
# Revision: 0
# Processed by: cddbd v1.5.1PL2 Copyright (c) Steve Scherf et al.
# Submitted via: Collectorz.com_Music_Collector 6.11
#
DISCID=bf0bcc0f
DTITLE=Various Artist - Shades Guitars Stripes and Stars
DYEAR=1996
DGENRE=Rock
TTITLE0=Georgia Satellites, The - Battleship Chains
TTITLE1=Jason and The Scorchers - Crashin' Down
TTITLE2=Husker Du - Don't Want To Know If You Are Lonely
TTITLE3=Smithereens - Behind The Wall of Sleep
TTITLE4=Los Lobos - Will The Wolf Survive
TTITLE5=Long Ryders, The - Final Wild Son
TTITLE6=Fabulous Thunderbirds, The - I Believe I'm in Love
TTITLE7=Timbuk 3 - The Future's So Bright I Gotta Wear Shades
TTITLE8=Rainmakers, The - Let My People Go Go
TTITLE9=Beat Farmers - Bigger Stones
TTITLE10=Earle, Steve - Copperhead Road
TTITLE11=Del Fuegos - Don't Run Wild
TTITLE12=Green On Red - Time Ain't Nothing
TTITLE13=Guadalacanal Diary - Trail of Tears
TTITLE14=Hooters - Satellite
EXTD=
EXTT0=
EXTT1=
EXTT2=
EXTT3=
EXTT4=
EXTT5=
EXTT6=
EXTT7=
EXTT8=
EXTT9=
EXTT10=
EXTT11=
EXTT12=
EXTT13=
EXTT14=
PLAYORDER=
